<?xml version="1.0" encoding="UTF-8" standalone="no"?>
<!-- Created with Inkscape (http://www.inkscape.org/) -->

<svg
   xmlns:dc="http://purl.org/dc/elements/1.1/"
   xmlns:cc="http://creativecommons.org/ns#"
   xmlns:rdf="http://www.w3.org/1999/02/22-rdf-syntax-ns#"
   xmlns:svg="http://www.w3.org/2000/svg"
   xmlns="http://www.w3.org/2000/svg"
   xmlns:xlink="http://www.w3.org/1999/xlink"
   xmlns:sodipodi="http://sodipodi.sourceforge.net/DTD/sodipodi-0.dtd"
   xmlns:inkscape="http://www.inkscape.org/namespaces/inkscape"
   width="210mm"
   height="297mm"
   viewBox="0 0 210 297"
   version="1.1"
   id="svg1927">
  <defs
     id="defs1921">
    <linearGradient
       inkscape:collect="always"
       xlink:href="#linearGradient1070"
       id="linearGradient1154"
       gradientUnits="userSpaceOnUse"
       x1="80.427612"
       y1="61.082985"
       x2="47.016792"
       y2="88.032303"
       gradientTransform="translate(1.2506419,1.3612742)" />
    <linearGradient
       inkscape:collect="always"
       id="linearGradient1070">
      <stop
         style="stop-color:#f1b295;stop-opacity:1"
         offset="0"
         id="stop1076" />
      <stop
         style="stop-color:#d79475;stop-opacity:0.99999994"
         offset="1"
         id="stop1078" />
    </linearGradient>
  </defs>
  <sodipodi:namedview
     id="base"
     pagecolor="#ffffff"
     bordercolor="#666666"
     borderopacity="1.0"
     inkscape:pageopacity="0.0"
     inkscape:pageshadow="2"
     inkscape:zoom="0.35"
     inkscape:cx="400"
     inkscape:cy="560"
     inkscape:document-units="mm"
     inkscape:current-layer="layer1"
     inkscape:document-rotation="0"
     showgrid="false" />
  <metadata
     id="metadata1924">
    <rdf:RDF>
      <cc:Work
         rdf:about="">
        <dc:format>image/svg+xml</dc:format>
        <dc:type
           rdf:resource="http://purl.org/dc/dcmitype/StillImage" />
      </cc:Work>
    </rdf:RDF>
  </metadata>
  <g
     inkscape:label="Layer 1"
     inkscape:groupmode="layer"
     id="layer1">
    <rect
       style="fill:#c59781;fill-opacity:1;stroke:none;stroke-width:0.660403"
       id="rect1032-8"
       width="85"
       height="85"
       x="4.3115668"
       y="5.5214071"
       ry="8.3936214" />
    <rect
       style="fill:url(#linearGradient1154);fill-opacity:1;stroke:#000000;stroke-width:0.660403"
       id="rect833-3"
       width="85"
       height="85"
       x="5.3698936"
       y="4.4630728"
       ry="8.3936214" />
    <path
       id="circle2590-2"
       style="fill:#db767b;fill-opacity:1;fill-rule:evenodd;stroke:#a02c2c;stroke-width:0.867196"
       d="M 47.844744,18.221333 A 28.741578,28.741578 0 0 0 19.128427,46.962836 28.741578,28.741578 0 0 0 47.869923,75.704823 28.741578,28.741578 0 0 0 76.611429,46.962836 28.741578,28.741578 0 0 0 47.869923,18.221333 a 28.741578,28.741578 0 0 0 -0.02513,0 z m -0.02761,9.562098 a 19.179589,19.179589 0 0 1 0.05275,0 A 19.179589,19.179589 0 0 1 67.049279,46.962836 19.179589,19.179589 0 0 1 47.869866,66.142707 19.179589,19.179589 0 0 1 28.68998,46.962836 19.179589,19.179589 0 0 1 47.817086,27.783431 Z" />
    <rect
       style="fill:#f1b295;fill-opacity:1;stroke:#a02c2c;stroke-width:0.97491"
       id="rect3055"
       width="15.813352"
       height="16.378115"
       x="68.497368"
       y="38.774021"
       ry="4.0945287" />
    <rect
       style="fill:#f1b295;fill-opacity:1;stroke:#a02c2c;stroke-width:0.97491"
       id="rect3059"
       width="15.813352"
       height="16.378115"
       x="-7.0659351"
       y="88.057228"
       ry="4.0945287"
       transform="rotate(-45)" />
    <path
       id="path3061"
       style="fill:#db767b;fill-opacity:1;fill-rule:evenodd;stroke:#a02c2c;stroke-width:0.867196"
       d="M 47.844744,18.221333 A 28.741578,28.741578 0 0 0 19.128427,46.962836 28.741578,28.741578 0 0 0 47.869923,75.704823 28.741578,28.741578 0 0 0 76.611429,46.962836 28.741578,28.741578 0 0 0 47.869923,18.221333 a 28.741578,28.741578 0 0 0 -0.02513,0 z m -0.02761,9.562098 a 19.179589,19.179589 0 0 1 0.05275,0 A 19.179589,19.179589 0 0 1 67.049279,46.962836 19.179589,19.179589 0 0 1 47.869866,66.142707 19.179589,19.179589 0 0 1 28.68998,46.962836 19.179589,19.179589 0 0 1 47.817086,27.783431 Z" />
    <rect
       style="fill:#f1b295;fill-opacity:1;stroke:#a02c2c;stroke-width:0.97491"
       id="rect3063"
       width="15.813352"
       height="16.378115"
       x="21.923788"
       y="59.067513"
       ry="4.0945287"
       transform="rotate(-45)" />
    <path
       id="path3065"
       style="fill:#db767b;fill-opacity:1;fill-rule:evenodd;stroke:#a02c2c;stroke-width:0.867196"
       d="M 47.844744,18.221333 A 28.741578,28.741578 0 0 0 19.128427,46.962836 28.741578,28.741578 0 0 0 47.869923,75.704823 28.741578,28.741578 0 0 0 76.611429,46.962836 28.741578,28.741578 0 0 0 47.869923,18.221333 a 28.741578,28.741578 0 0 0 -0.02513,0 z m -0.02761,9.562098 a 19.179589,19.179589 0 0 1 0.05275,0 A 19.179589,19.179589 0 0 1 67.049279,46.962836 19.179589,19.179589 0 0 1 47.869866,66.142707 19.179589,19.179589 0 0 1 28.68998,46.962836 19.179589,19.179589 0 0 1 47.817086,27.783431 Z" />
    <rect
       style="fill:#f1b295;fill-opacity:1;stroke:#a02c2c;stroke-width:0.97491"
       id="rect3067"
       width="15.813352"
       height="16.378115"
       x="39.963257"
       y="10.521926"
       ry="4.0945287" />
    <path
       id="path3069"
       style="fill:#db767b;fill-opacity:1;fill-rule:evenodd;stroke:#a02c2c;stroke-width:0.867196"
       d="M 47.844744,18.221333 A 28.741578,28.741578 0 0 0 19.128427,46.962836 28.741578,28.741578 0 0 0 47.869923,75.704823 28.741578,28.741578 0 0 0 76.611429,46.962836 28.741578,28.741578 0 0 0 47.869923,18.221333 a 28.741578,28.741578 0 0 0 -0.02513,0 z m -0.02761,9.562098 a 19.179589,19.179589 0 0 1 0.05275,0 A 19.179589,19.179589 0 0 1 67.049279,46.962836 19.179589,19.179589 0 0 1 47.869866,66.142707 19.179589,19.179589 0 0 1 28.68998,46.962836 19.179589,19.179589 0 0 1 47.817086,27.783431 Z" />
    <rect
       style="fill:#f1b295;fill-opacity:1;stroke:#a02c2c;stroke-width:0.97491"
       id="rect3071"
       width="15.813352"
       height="16.378115"
       x="-7.4649372"
       y="29.678778"
       ry="4.0945287"
       transform="rotate(-45)" />
    <path
       id="path3073"
       style="fill:#db767b;fill-opacity:1;fill-rule:evenodd;stroke:#a02c2c;stroke-width:0.867196"
       d="M 47.844744,18.221333 A 28.741578,28.741578 0 0 0 19.128427,46.962836 28.741578,28.741578 0 0 0 47.869923,75.704823 28.741578,28.741578 0 0 0 76.611429,46.962836 28.741578,28.741578 0 0 0 47.869923,18.221333 a 28.741578,28.741578 0 0 0 -0.02513,0 z m -0.02761,9.562098 a 19.179589,19.179589 0 0 1 0.05275,0 A 19.179589,19.179589 0 0 1 67.049279,46.962836 19.179589,19.179589 0 0 1 47.869866,66.142707 19.179589,19.179589 0 0 1 28.68998,46.962836 19.179589,19.179589 0 0 1 47.817086,27.783431 Z" />
    <rect
       style="fill:#f1b295;fill-opacity:1;stroke:#a02c2c;stroke-width:0.97491"
       id="rect3075"
       width="15.813352"
       height="16.378115"
       x="11.429053"
       y="38.774021"
       ry="4.0945287" />
    <path
       id="path3077"
       style="fill:#db767b;fill-opacity:1;fill-rule:evenodd;stroke:#a02c2c;stroke-width:0.867196"
       d="M 47.844744,18.221333 A 28.741578,28.741578 0 0 0 19.128427,46.962836 28.741578,28.741578 0 0 0 47.869923,75.704823 28.741578,28.741578 0 0 0 76.611429,46.962836 28.741578,28.741578 0 0 0 47.869923,18.221333 a 28.741578,28.741578 0 0 0 -0.02513,0 z m -0.02761,9.562098 a 19.179589,19.179589 0 0 1 0.05275,0 A 19.179589,19.179589 0 0 1 67.049279,46.962836 19.179589,19.179589 0 0 1 47.869866,66.142707 19.179589,19.179589 0 0 1 28.68998,46.962836 19.179589,19.179589 0 0 1 47.817086,27.783431 Z" />
    <rect
       style="fill:#f1b295;fill-opacity:1;stroke:#a02c2c;stroke-width:0.97491"
       id="rect3079"
       width="15.813352"
       height="16.378115"
       x="58.950878"
       y="20.358931"
       ry="4.0945287"
       transform="rotate(45)" />
    <rect
       style="fill:#f1b295;fill-opacity:1;stroke:#a02c2c;stroke-width:0.97491"
       id="rect3083"
       width="15.813352"
       height="16.378115"
       x="39.963257"
       y="67.026108"
       ry="4.0945287" />
    <path
       id="path3081"
       style="fill:#db767b;fill-opacity:1;fill-rule:evenodd;stroke:#a02c2c;stroke-width:0.867196"
       d="M 47.844744,18.221333 A 28.741578,28.741578 0 0 0 19.128427,46.962836 28.741578,28.741578 0 0 0 47.869923,75.704823 28.741578,28.741578 0 0 0 76.611429,46.962836 28.741578,28.741578 0 0 0 47.869923,18.221333 a 28.741578,28.741578 0 0 0 -0.02513,0 z m -0.02761,9.562098 a 19.179589,19.179589 0 0 1 0.05275,0 A 19.179589,19.179589 0 0 1 67.049279,46.962836 19.179589,19.179589 0 0 1 47.869866,66.142707 19.179589,19.179589 0 0 1 28.68998,46.962836 19.179589,19.179589 0 0 1 47.817086,27.783431 Z" />
  </g>
</svg>
